<?xml version="1.0" encoding="utf-8"?>
<!-- Generator: Adobe Illustrator 19.1.0, SVG Export Plug-In . SVG Version: 6.00 Build 0)  -->
<svg version="1.1" id="Capa_1" xmlns="http://www.w3.org/2000/svg" xmlns:xlink="http://www.w3.org/1999/xlink" x="0px" y="0px"
	 viewBox="-348.7 -34.4 51.6 52.5" style="enable-background:new -348.7 -34.4 51.6 52.5;" xml:space="preserve">
<style type="text/css">
	.st0{fill:none;stroke:#53BDBE;stroke-width:2;stroke-miterlimit:10;}
	.st1{fill:#53BDBE;}
</style>
<circle class="st0" cx="-322.9" cy="-7.8" r="24.1"/>
<g>
	<path class="st1" d="M-329.9-13.2c-0.9,0-1.7-0.3-2.3-1c-1.3-1.3-1.3-3.4,0-4.7c0.6-0.6,1.4-1,2.3-1s1.7,0.3,2.3,1
		c1.3,1.3,1.3,3.4,0,4.7C-328.2-13.5-329-13.2-329.9-13.2z M-329.9-17.9c-0.4,0-0.7,0.1-1,0.4c-0.6,0.6-0.6,1.5,0,2
		c0.3,0.3,0.6,0.4,1,0.4c0.4,0,0.7-0.1,1-0.4c0.6-0.6,0.6-1.5,0-2C-329.2-17.7-329.5-17.9-329.9-17.9z"/>
	<path class="st1" d="M-316.2,7c-0.7,0-1.4-0.3-1.9-0.8c-0.5-0.5-0.8-1.2-0.8-1.9s0.3-1.4,0.8-1.9l1.2-1.2l-0.4-0.4l-1.2,1.2
		c-0.5,0.5-1.2,0.8-1.9,0.8s-1.4-0.3-1.9-0.8c-0.5-0.5-0.8-1.2-0.8-1.9s0.3-1.4,0.8-1.9L-321-3l-2.9-2.9c-1.3,0.6-2.8,1-4.2,1
		c-2.6,0-5.1-1-6.9-2.9c-1.8-1.8-2.9-4.3-2.9-6.9c0-2.6,1-5.1,2.9-6.9c1.8-1.8,4.3-2.9,6.9-2.9s5.1,1,6.9,2.9
		c2.9,2.9,3.7,7.4,1.9,11.1l10.7,10.7c0.6,0.6,0.9,1.4,0.9,2.3c0,0.9-0.3,1.7-0.9,2.3c-0.6,0.6-1.4,0.9-2.3,0.9
		c-0.8,0-1.5-0.3-2.1-0.8l-1.2,1.2C-314.8,6.7-315.4,7-316.2,7z M-317.2-1.9l3.1,3.1l-2.6,2.6c-0.2,0.2-0.2,0.4-0.2,0.6
		c0,0.2,0.1,0.4,0.2,0.6c0.2,0.2,0.4,0.2,0.6,0.2c0.2,0,0.4-0.1,0.6-0.2l2.6-2.6l1.2,1.2c0.3,0.3,0.6,0.4,1,0.4c0.4,0,0.7-0.1,1-0.4
		c0.3-0.3,0.4-0.6,0.4-1c0-0.4-0.1-0.7-0.4-1l-11.7-11.7l0.4-0.6c1.8-3.1,1.3-7-1.3-9.5c-1.5-1.5-3.5-2.3-5.6-2.3s-4.1,0.8-5.6,2.3
		c-1.5,1.5-2.3,3.5-2.3,5.6s0.8,4.1,2.3,5.6c1.5,1.5,3.5,2.3,5.6,2.3c1.4,0,2.7-0.4,3.9-1l0.6-0.4l5.2,5.2l-2.6,2.6
		c-0.2,0.2-0.2,0.4-0.2,0.6c0,0.2,0.1,0.4,0.2,0.6c0.2,0.2,0.4,0.2,0.6,0.2c0.2,0,0.4-0.1,0.6-0.2L-317.2-1.9z"/>
</g>
</svg>
